<?xml version="1.0" encoding="UTF-8" standalone="no"?>
<!DOCTYPE svg PUBLIC "-//W3C//DTD SVG 20010904//EN"
              "http://www.w3.org/TR/2001/REC-SVG-20010904/DTD/svg10.dtd">

<svg xmlns="http://www.w3.org/2000/svg"
     width="26.6667in" height="15in"
     viewBox="0 0 1920 1080">
  <path id="WhiteBaseRight"
        fill="none" stroke="black" stroke-width="1"
        d="M 954.74,341.75
           C 983.91,341.87 1013.25,342.00 1013.25,342.00
             1013.25,342.00 1131.27,364.36 1131.27,364.36
             1131.27,364.36 1131.55,384.32 1130.17,407.04
             1128.34,437.31 1124.73,472.55 1124.73,472.55
             1124.73,472.55 1121.00,509.75 1111.25,558.75
             1105.25,590.25 1091.45,640.73 1091.45,640.73
             1091.45,640.73 990.61,663.09 990.61,663.09
             990.61,663.09 985.88,659.38 985.88,659.38
             985.88,659.38 977.62,727.62 977.62,727.62
             977.62,727.62 966.33,727.65 955.00,727.67
             955.00,713.09 955.00,375.00 954.74,341.75 Z" />
</svg>
