<?xml version="1.0" encoding="UTF-8" standalone="no"?>
<!DOCTYPE svg PUBLIC "-//W3C//DTD SVG 20010904//EN"
              "http://www.w3.org/TR/2001/REC-SVG-20010904/DTD/svg10.dtd">

<svg xmlns="http://www.w3.org/2000/svg"
     width="26.6667in" height="15in"
     viewBox="0 0 1920 1080">
  <path id="MiddlePurplePointer"
        fill="none" stroke="black" stroke-width="1"
        d="M 981.06,430.69
           C 975.94,421.99 966.23,404.58 960.62,397.19
             958.94,394.97 954.69,394.69 954.69,394.69
             954.69,394.69 950.52,395.07 948.31,398.06
             942.32,406.17 933.51,423.08 928.88,430.69
             927.51,432.92 928.38,437.50 928.38,437.50
             928.38,437.50 930.58,441.30 933.50,441.31
             934.37,441.42 935.28,441.02 935.86,440.81
             946.00,436.39 963.03,437.18 972.87,440.42
             973.78,440.72 974.81,440.91 975.78,440.94
             979.62,440.31 980.62,437.75 980.62,437.75
             980.62,437.75 982.77,433.58 981.06,430.69 Z" />
</svg>
