<?xml version="1.0" encoding="UTF-8" standalone="no"?>
<!DOCTYPE svg PUBLIC "-//W3C//DTD SVG 20010904//EN"
              "http://www.w3.org/TR/2001/REC-SVG-20010904/DTD/svg10.dtd">

<svg xmlns="http://www.w3.org/2000/svg"
     width="26.6667in" height="15in"
     viewBox="0 0 1920 1080">
  <path id="WhiteBase"
        fill="none" stroke="black" stroke-width="1"
        d="M 955.26,341.75
           C 926.09,341.87 896.75,342.00 896.75,342.00
             896.75,342.00 778.73,364.36 778.73,364.36
             778.73,364.36 778.45,384.32 779.83,407.04
             781.66,437.31 785.27,472.55 785.27,472.55
             785.27,472.55 789.00,509.75 798.75,558.75
             804.75,590.25 818.55,640.73 818.55,640.73
             818.55,640.73 919.39,663.09 919.39,663.09
             919.39,663.09 924.12,659.38 924.12,659.38
             924.12,659.38 932.38,727.62 932.38,727.62
             932.38,727.62 943.67,727.65 955.00,727.67
             955.00,713.09 955.00,375.00 955.26,341.75 Z" />
</svg>
